<?xml version="1.0" encoding="utf-8"?>
<!-- Generator: Adobe Illustrator 24.1.0, SVG Export Plug-In . SVG Version: 6.00 Build 0)  -->
<svg version="1.0" xmlns="http://www.w3.org/2000/svg" xmlns:xlink="http://www.w3.org/1999/xlink" x="0px" y="0px"
	 viewBox="0 0 300 100" style="enable-background:new 0 0 300 100;" xml:space="preserve">
<style type="text/css">
	.st0{display:none;}
	.st1{display:inline;}
	.st2{display:inline;fill:#EF9D4D;}
	.st3{fill:#A6206C;}
	.st4{fill:#EF9D4D;}
	.st5{fill:#D34848;}
	.st6{fill:#FFFFFF;}
	.st7{fill:#BF0404;}
	.st8{fill:#8C0303;}
	.st9{fill:#F28705;}
	.st10{fill:url(#SVGID_1_);}
	.st11{fill:url(#SVGID_2_);}
	.st12{fill:url(#SVGID_3_);}
	.st13{fill:#DFAC23;}
	.st14{fill:none;stroke:#DFAC23;stroke-width:2;stroke-miterlimit:10;}
</style>
<g id="Layer_2" class="st0">
	<rect x="-6" y="-3" class="st1" width="916" height="136"/>
</g>
<g id="Layer_3" class="st0">
	<path class="st2" d="M-1905-3821"/>
</g>
<g id="Layer_1">
	<g>
		<polygon class="st3" points="124.88,66.82 124.79,67.07 125.13,67.03 		"/>
		<polygon class="st3" points="124.88,66.82 125.13,67.03 124.79,67.07 		"/>
		<g>
			<path class="st4" d="M58,32.31"/>
			<path class="st5" d="M49.43,33.82"/>
			<path class="st5" d="M55.5,33.82"/>
			<path class="st6" d="M46.56,38.61"/>
			<g>
				<path class="st4" d="M46.11,40.18c0.09,0.04,0.35,0.16,0.71,0.24c0.37,0.08,0.69,0.09,0.91,0.08c0.03,0.11-0.03,0.25-0.17,0.26
					c-0.41,0.02-0.47,0.23-0.57,0.44c-0.02,0.05-0.07,0.08-0.13,0.11c-0.08,0.04-0.17,0.04-0.26,0.04
					c-0.51-0.09-1.05-0.08-1.58-0.08c-0.33,0-0.65,0.16-0.9,0.36c-0.16,0.05-0.35,0.13-0.55,0.23c-0.38,0.2-0.99,0.51-1.25,1.14
					c-0.25,0.61-0.05,1.21,0.06,1.47c-5.78-4.11-6.7-5.38-6.46-5.77c0.12-0.19,0.47-0.11,3.66,0.08c2.46,0.15,2.46,0.12,2.9,0.22
					C43.45,39.22,45.26,39.8,46.11,40.18z"/>
				<path class="st7" d="M51.18,41.56c-0.75,0.26-1.5,0.29-2.25,0.23c-0.05-0.03-0.06-0.08-0.02-0.12c0.33-0.35,0.31-0.71,0.22-1.07
					c0.52,0.01,1.04,0.02,1.56,0.02c0.1,0.08,0.15,0.19,0.16,0.3c0.01,0.13,0.11,0.18,0.26,0.23
					C51.46,41.24,51.46,41.29,51.18,41.56z"/>
				<path class="st8" d="M51.18,41.56c0.11-0.18,0.25-0.37-0.2-0.33c-0.08,0.01-0.14,0-0.18-0.04c-0.05-0.04-0.06-0.1-0.06-0.14
					c-0.01-0.13-0.01-0.18-0.03-0.22c-0.08-0.17-0.72-0.14-0.73-0.19c-0.02-0.07,1.51-0.14,2.96-0.58c1.27-0.38,2.01-0.9,2.16-0.74
					c0.07,0.07,0.01,0.26-0.42,0.76c-0.25,0.14-0.53,0.29-0.84,0.44c-0.3,0.15-0.61,0.29-0.94,0.42
					C52.3,41.19,51.73,41.39,51.18,41.56z"/>
				<path class="st5" d="M49.12,40.6c0.43,0.39,0.09,0.79-0.19,1.19c-0.93,0-1.82-0.12-2.74-0.17c-0.06-0.09,0.04-0.13,0.12-0.14
					c0.18-0.01,0.24-0.09,0.3-0.2c0.07,0,0.14,0,0.21,0c0.12-0.03,0.25-0.03,0.37-0.03c0.78,0.02,0.95-0.1,1.04-0.7
					c0-0.02,0.04-0.03,0.08-0.02C48.58,40.56,48.85,40.58,49.12,40.6z"/>
				<path class="st9" d="M46.61,41.28c0.05,0.15,0.14,0.33-0.25,0.25c-0.08-0.01-0.15,0.01-0.17,0.08c-0.7,0.07-1.38-0.03-2.08,0.01
					c0.03-0.4,0.57-0.42,0.79-0.43C45.47,41.17,46.08,41.13,46.61,41.28z"/>
				<path class="st9" d="M48.31,40.53c0.09,0.12,0.21,0.25-0.06,0.37c-0.01,0.01-0.02,0.02-0.03,0.03c-0.2,0.11-0.04,0.39-0.28,0.42
					c-0.37,0.05-0.76,0.02-1.11-0.07c0.06-0.12,0.15-0.24,0.17-0.36c0.02-0.15,0.11-0.23,0.29-0.2c0.26,0.04,0.35-0.08,0.44-0.23
					C47.92,40.5,48.11,40.52,48.31,40.53z"/>
			</g>
			
				<linearGradient id="SVGID_1_" gradientUnits="userSpaceOnUse" x1="35.8714" y1="37.694" x2="54.5567" y2="37.694" gradientTransform="matrix(0.9705 -0.2411 0.2411 0.9705 -7.1048 14.9425)">
				<stop  offset="0" style="stop-color:#FFFFFF"/>
				<stop  offset="0.4302" style="stop-color:#DFAC23"/>
			</linearGradient>
			<path class="st10" d="M55.09,39.32c-0.47-0.27-1.15,0.98-2.68,1.56c-1.93,0.73-4.28,0.05-6.68-0.64c-1.47-0.42-2.54-0.9-4.4-1.04
				c-0.54-0.04-0.83-0.03-1.64-0.07c-1.61-0.09-2.92-0.28-3.78-0.42c0.08,1.86,0.68,2.62,1.23,2.97c1.32,0.84,2.12,1.05,2.12,1.05
				c0.51,0.13,0.84,0.37,1.03,0.71c0.3,0.51,0.53,1.04,0.85,1.55c0.19,0.3,0.52,0.56,0.81,0.86c0.6-0.15,1.12-0.24,1.57-0.4
				c0.92-0.33,1.83-0.68,2.7-1.07c2.56-1.14,5.27-1.94,8.53-1.64c0.18,0.02,0.37-0.05,0.59-0.08c0-0.41,0-0.95-0.02-1.59
				C55.29,39.56,55.22,39.39,55.09,39.32z"/>
			<g>
				<path class="st4" d="M51.14,35.01c-0.44-0.2-0.89-0.4-1.3-0.64c0.01-0.09,0.11-0.18,0.21-0.14c0.3,0.11,0.42-0.02,0.57-0.15
					c0.03-0.03,0.08-0.04,0.13-0.04c0.07,0,0.14,0.02,0.2,0.05c0.29,0.12,0.78,0.27,1.34,0.22c0.13-0.01,0.25-0.03,0.35-0.06
					c1.37-0.28,2.43-0.2,2.67,0.2c0.06,0.09,0.13,0.3-0.13,0.7c0.12-0.05,0.18-0.08,0.18-0.08c0-0.01-0.08,0.01-0.24,0.06
					c-1,0.23-2.01,0.24-3.06-0.04C51.78,35.01,51.45,34.91,51.14,35.01z"/>
				<path class="st7" d="M47.44,32.12c0.35,0.16,0.73,0.36,1.13,0.58c0.26,0.15,0.5,0.3,0.72,0.44c0.14,0.3,0.11,0.32,0.11,0.32
					c-0.04,0.03-0.18-0.14-0.3-0.13c-0.1,0.01-0.19,0.12-0.25,0.54c-0.38-0.16-0.76-0.33-1.13-0.49c-0.04-0.09-0.05-0.18-0.02-0.27
					c0.01-0.03,0.01-0.07,0.01-0.1c-0.02-0.06-0.06-0.11-0.12-0.15c-0.22-0.15-1.78-1.06-1.76-1.13
					C45.82,31.7,46.17,31.77,47.44,32.12z"/>
				<path class="st8" d="M47.66,32.54c-0.14,0.1-0.31,0.2,0.03,0.31c0.06,0.02,0.1,0.05,0.12,0.08c0.03,0.05,0.01,0.09,0,0.12
					c-0.09,0.22-0.06,0.29-0.1,0.33c-0.16,0.16-0.89-0.37-1.53-0.52c-0.45-0.1-1.11-0.09-2.02,0.52c0.26-0.24,0.94-0.78,2.04-0.91
					C46.8,32.39,47.32,32.46,47.66,32.54z"/>
				<path class="st5" d="M48.85,33.87c-0.03-0.07-0.06-0.16-0.04-0.26c0.04-0.33,0.45-0.45,0.48-0.46c0.11,0.05,0.28,0.13,0.46,0.26
					c0.52,0.35,0.64,0.74,1.03,0.83c0.13,0.03,0.25,0.02,0.32,0.01c0.28,0.07,0.55,0.14,0.83,0.21c-0.23-0.1-0.5-0.2-0.8-0.28
					c-0.07-0.02-0.14-0.03-0.21-0.05c-0.05-0.02-0.1-0.04-0.16-0.06c-0.1-0.02-0.19-0.05-0.28-0.09c-0.56-0.25-0.73-0.22-1,0.2
					c-0.01,0.01-0.04,0.01-0.06-0.01C49.23,34.06,49.04,33.97,48.85,33.87z"/>
				<path class="st9" d="M50.92,34.13c-0.48-0.13-0.6-0.16-0.6-0.15c0,0.01,0.37,0.17,0.81,0.19c0.18,0.01,0.32-0.01,0.32,0.01
					c0,0.01-0.12,0.04-0.71,0.13c0.53-0.2,0.89-0.14,1.08-0.09c0.1,0.03,0.22,0.07,0.37,0.13c0.25,0.09,0.47,0.19,0.68,0.29
					c-0.16,0.29-0.56,0.13-0.72,0.08C51.72,34.56,51.26,34.41,50.92,34.13z"/>
				<path class="st9" d="M49.42,34.16c-0.02-0.12-0.07-0.24,0.17-0.25c0.01,0,0.02-0.01,0.03-0.01c0.16-0.02,0.16-0.2,0.28-0.23
					c0.02,0,0.03,0,0.07,0c0.24,0.04,0.6,0.2,0.7,0.24c0.38,0.16,0.4,0.08,0.79,0.26c0.21,0.1,0.37,0.2,0.47,0.27
					c-0.55-0.14-0.96-0.21-1.15-0.22c-0.11,0-0.21-0.02-0.27,0.05c-0.02,0.02-0.06,0.1-0.14,0.1c-0.04,0-0.09-0.01-0.14-0.04
					c-0.18-0.11-0.28-0.04-0.4,0.03C49.7,34.3,49.56,34.23,49.42,34.16z"/>
			</g>
			<g>
				<path class="st4" d="M46.92,39.62c-0.45-0.05-0.98-0.15-1.56-0.3c-0.37-0.1-0.72-0.22-1.02-0.33c0.03-0.1,0.2-0.18,0.37-0.15
					c0.49,0.11,0.71-0.03,0.96-0.17c0.05-0.03,0.14-0.04,0.22-0.05c0.12,0,0.23,0.02,0.33,0.05c0.55,0.22,1.2,0.37,1.83,0.54
					c0.39,0.1,0.87,0.07,1.3-0.01c0.68,0.02,1.81-0.02,3.01-0.51c2.03-0.83,2.83-2.38,3.07-2.91c-0.54,2.05-1.77,2.84-2.26,3.1
					c-1.6,0.86-3.61,0.84-5.2,0.79C47.52,39.67,47.16,39.64,46.92,39.62z"/>
				<path class="st7" d="M40.92,37.13c1.05,0.03,1.96,0.23,2.81,0.5c0.04,0.04,0.02,0.08-0.05,0.1c-0.61,0.17-0.82,0.45-0.93,0.75
					c-0.61-0.16-1.22-0.32-1.83-0.49c-0.06-0.09-0.06-0.19,0-0.28c0.07-0.1-0.01-0.17-0.17-0.25
					C40.38,37.29,40.41,37.25,40.92,37.13z"/>
				<path class="st8" d="M40.92,37.13c-0.25,0.11-0.53,0.21,0.02,0.32c0.1,0.02,0.17,0.05,0.19,0.08c0.04,0.05,0,0.1-0.02,0.12
					c-0.08,0.11-0.11,0.14-0.11,0.18c-0.01,0.14,0.75,0.34,0.75,0.36c-0.01,0.08-5.86-0.97-5.92-0.98l0,0
					c0.82-0.07,1.71-0.12,2.66-0.13C39.35,37.07,40.16,37.09,40.92,37.13z"/>
				<path class="st5" d="M42.74,38.48c-0.26-0.43,0.39-0.63,0.98-0.85c1.1,0.28,2.09,0.64,3.13,0.95c0.01,0.09-0.13,0.09-0.23,0.07
					c-0.21-0.05-0.34,0-0.48,0.06c-0.08-0.02-0.17-0.04-0.25-0.06c-0.16-0.02-0.31-0.05-0.45-0.09c-0.91-0.25-1.19-0.21-1.67,0.22
					c-0.02,0.01-0.06,0.01-0.1-0.01C43.36,38.67,43.05,38.58,42.74,38.48z"/>
				<path class="st9" d="M46.15,38.71c0.04-0.13,0.04-0.29,0.46-0.12c0.08,0.03,0.18,0.04,0.25-0.01c0.88,0.16,1.62,0.44,2.47,0.62
					c-0.29,0.3-0.95,0.15-1.21,0.09C47.43,39.14,46.68,38.99,46.15,38.71z"/>
				<path class="st9" d="M43.67,38.77c-0.03-0.12-0.09-0.25,0.31-0.26c0.02,0,0.03-0.01,0.05-0.01c0.31-0.03,0.3-0.28,0.6-0.23
					c0.47,0.08,0.92,0.21,1.27,0.39c-0.15,0.07-0.34,0.14-0.43,0.23c-0.12,0.11-0.28,0.14-0.47,0.07c-0.28-0.11-0.47-0.04-0.67,0.04
					C44.11,38.91,43.89,38.84,43.67,38.77z"/>
			</g>
			
				<linearGradient id="SVGID_2_" gradientUnits="userSpaceOnUse" x1="36.3826" y1="32.8252" x2="55.9" y2="32.8252" gradientTransform="matrix(0.9705 -0.2411 0.2411 0.9705 -7.1048 14.9425)">
				<stop  offset="0.7151" style="stop-color:#DFAC23"/>
				<stop  offset="1" style="stop-color:#FFFFFF"/>
			</linearGradient>
			<path class="st11" d="M36.66,37.34c7.36,0.36,10.57,2.79,14.74,1.85c0.62-0.14,1.57-0.42,2.63-1.07c0.07-0.21,0.2-0.4,0.43-0.58
				c0.16-0.12,0.24-0.3,0.37-0.44c0.6-0.66,0.74-1.65,0.51-2.63c-1.07,0.32-2.71,0.62-4.46,0.07c-0.28-0.09-0.47-0.17-0.78-0.3
				c-1.87-0.79-3.27-2.04-4.3-2.52c-0.93-0.43-2.4-0.69-4.77,0.17c0.08,0.18,0.17,0.42,0.21,0.69c0.07,0.48-0.01,0.86-0.08,1.1
				c-0.6-0.06-1.08-0.11-1.57-0.17c-1.31-0.15-2.24,0.21-2.91,0.96c-0.75,0.84-0.98,1.82-0.75,2.83
				C36.09,37.32,36.34,37.33,36.66,37.34z"/>
			<g>
				<path class="st4" d="M48.3,31.88c-0.41-0.2-0.83-0.38-1.22-0.61c0.01-0.09,0.1-0.17,0.2-0.13c0.28,0.11,0.4-0.02,0.53-0.14
					c0.03-0.03,0.07-0.04,0.12-0.04c0.07,0,0.13,0.02,0.19,0.05c0.32,0.21,0.7,0.36,1.07,0.52c0.22,0.1,0.5,0.08,0.73,0.01
					c0.59,0.18,1.17,0.35,1.81,0.35c0.24,0,0.47-0.05,0.73-0.04c-0.1,0.12-0.28,0.11-0.42,0.16c1.72,0.05,2.21,0.17,2.23,0.28
					c0.06,0.27-2.42,1.1-4.79,0.2C48.98,32.3,48.59,32.07,48.3,31.88z"/>
				<path class="st7" d="M45.03,29.51c0.59,0.04,1.12,0.23,1.62,0.5c0.03,0.04,0.02,0.08-0.02,0.09c-0.33,0.15-0.43,0.41-0.48,0.69
					c-0.35-0.16-0.71-0.31-1.06-0.47c-0.04-0.09-0.05-0.17-0.02-0.26c0.03-0.09-0.02-0.16-0.11-0.24
					C44.74,29.65,44.76,29.62,45.03,29.51z"/>
				<path class="st8" d="M45.03,29.51c-0.13,0.1-0.29,0.19,0.03,0.29c0.06,0.02,0.1,0.05,0.12,0.08c0.02,0.04,0.01,0.09,0,0.12
					c-0.02,0.06-0.04,0.11-0.05,0.15c-0.03,0.13-0.03,0.14-0.05,0.16c-0.09,0.12-0.69-0.32-1.36-0.36
					c-0.21-0.01-0.23,0.03-0.98,0.17c-0.42,0.08-0.76,0.14-0.98,0.17c0.25-0.23,0.87-0.74,1.91-0.86
					C44.22,29.37,44.71,29.44,45.03,29.51z"/>
				<path class="st5" d="M46.15,30.79c-0.17-0.4,0.18-0.58,0.5-0.78c0.64,0.27,1.22,0.61,1.83,0.92c0.01,0.08-0.07,0.08-0.13,0.06
					c-0.12-0.05-0.19,0-0.27,0.05c-0.05-0.02-0.1-0.04-0.15-0.06c-0.09-0.02-0.18-0.05-0.26-0.09c-0.53-0.24-0.68-0.21-0.93,0.18
					c-0.01,0.01-0.04,0.01-0.06-0.01C46.51,30.97,46.33,30.88,46.15,30.79z"/>
				<path class="st9" d="M48.09,31.04c0.01-0.12,0-0.27,0.25-0.1c0.05,0.03,0.1,0.04,0.14-0.01c0.51,0.16,0.94,0.42,1.44,0.6
					c-0.14,0.27-0.52,0.13-0.68,0.07C48.84,31.45,48.41,31.31,48.09,31.04z"/>
				<path class="st9" d="M46.69,31.07c-0.02-0.11-0.07-0.23,0.16-0.24c0.01,0,0.02-0.01,0.03-0.01c0.17-0.02,0.15-0.26,0.32-0.21
					c0.27,0.08,0.53,0.2,0.74,0.37c-0.08,0.07-0.18,0.12-0.23,0.2c-0.06,0.1-0.15,0.13-0.26,0.06c-0.17-0.11-0.27-0.04-0.37,0.03
					C46.95,31.2,46.82,31.14,46.69,31.07z"/>
			</g>
			
				<linearGradient id="SVGID_3_" gradientUnits="userSpaceOnUse" x1="43.3509" y1="28.369" x2="55.7266" y2="28.369" gradientTransform="matrix(0.9705 -0.2411 0.2411 0.9705 -7.1048 14.9425)">
				<stop  offset="0.7151" style="stop-color:#DFAC23"/>
				<stop  offset="1" style="stop-color:#FFFFFF"/>
			</linearGradient>
			<path class="st12" d="M47.98,31.19c0.89,0.64,0.92,0.95,1.46,1.3c0.82,0.52,2.29,0.83,5.17-0.26c-0.23-0.58-0.59-1.12-1.06-1.54
				c-1.32-1.19-3.16-1.38-4.42-0.66c-0.25,0.14-0.44,0.4-0.97,0.27c-0.16-0.17-0.36-0.39-0.58-0.61c-0.3-0.29-0.57-0.61-0.91-0.86
				c-1.57-1.18-3.58-1.1-4.61,0.2c-0.22,0.28-0.42,0.62-0.42,0.62c-0.13,0.24-0.21,0.47-0.26,0.64c0.48-0.23,1.68-0.72,3.3-0.5
				C46.33,30.01,47.5,30.84,47.98,31.19z"/>
			<path class="st3" d="M44.45,30.42"/>
		</g>
		<g>
			<path class="st13" d="M56.21,57.59c-6.31,0-9.47-2.02-9.47-6.05c0-0.35,0.02-0.7,0.07-1.06l0.23-0.02c0,2.23,0.94,3.89,2.83,4.99
				v-9.43c-0.02-0.32-0.17-0.59-0.46-0.8c-0.29-0.21-0.63-0.31-1.01-0.31h-0.3v-0.18h7.09c2.61,0,4.53,0.46,5.76,1.38
				c0.66,0.5,0.99,1.11,0.99,1.81c0,0.78-0.33,1.43-0.99,1.96c-0.29,0.25-0.62,0.43-0.99,0.54c0.08,0,0.15,0,0.23,0
				c1.04,0,2,0.28,2.88,0.84s1.31,1.32,1.31,2.28c0,0.96-0.44,1.75-1.31,2.39C61.59,57.04,59.3,57.59,56.21,57.59z M56.99,48.58
				v-0.54c-0.05-0.78-0.25-1.36-0.6-1.74c-0.35-0.38-0.95-0.6-1.8-0.65v10.97c1.38-0.01,2.46-0.3,3.23-0.87
				c0.77-0.57,1.15-1.31,1.15-2.24c0-1.02-0.36-1.75-1.08-2.21c-0.72-0.46-1.56-0.68-2.51-0.68v-0.16c0.32,0,0.59-0.07,0.82-0.21
				c0.22-0.14,0.39-0.31,0.5-0.51C56.89,49.3,56.99,48.91,56.99,48.58z"/>
			<path class="st13" d="M75.17,44.48c1.98,0,3.69,0.26,5.13,0.77c1.44,0.51,2.54,1.27,3.31,2.25s1.15,2.16,1.15,3.51
				c0,2.05-0.85,3.65-2.56,4.8s-4.05,1.73-7.03,1.73c-2.98,0-5.32-0.58-7.01-1.73s-2.55-2.76-2.55-4.8c0-2.05,0.85-3.65,2.55-4.8
				S72.19,44.48,75.17,44.48z M71.89,55.17c0.79,0.99,1.89,1.49,3.29,1.49s2.5-0.5,3.29-1.49c0.79-0.99,1.19-2.38,1.19-4.15
				s-0.4-3.15-1.19-4.15c-0.79-0.99-1.89-1.49-3.29-1.49s-2.5,0.5-3.29,1.49c-0.79,0.99-1.19,2.38-1.19,4.15S71.1,54.17,71.89,55.17
				z"/>
			<path class="st13" d="M99.49,53.25c0,1.45-0.66,2.53-1.98,3.24c-1.32,0.71-3.08,1.07-5.27,1.07c-1.27,0-2.4-0.11-3.36-0.33
				c-0.97-0.22-1.67-0.5-2.1-0.83c-0.14-0.26-0.21-0.55-0.21-0.85c0-0.31,0.03-0.6,0.09-0.89c0.17-0.71,0.45-1.26,0.85-1.65h0.21
				c-0.02,0.07-0.02,0.15-0.02,0.23c0,0.89,0.45,1.68,1.35,2.38c0.9,0.7,2.12,1.05,3.67,1.05c1.04,0,1.85-0.17,2.41-0.51
				s0.84-0.73,0.84-1.17s-0.19-0.81-0.58-1.12c-0.38-0.31-1.01-0.62-1.87-0.93l-3.75-1.37c-1.06-0.37-1.83-0.89-2.3-1.56
				c-0.38-0.53-0.58-1.11-0.58-1.74c0-1.29,0.56-2.27,1.68-2.95c0.94-0.55,2.18-0.83,3.73-0.83c1.01,0,2.31,0.06,3.89,0.18H98
				l-0.51,2.93h-0.23c0-0.66-0.33-1.19-0.99-1.6c-0.66-0.41-1.5-0.61-2.52-0.61c-1.02,0-1.81,0.14-2.37,0.41s-0.86,0.64-0.91,1.1
				c-0.06,0.56,0.4,1.04,1.38,1.44c0.17,0.07,0.39,0.15,0.67,0.23l4.31,1.56C98.6,50.75,99.49,51.8,99.49,53.25z"/>
			<path class="st13" d="M114.35,53.25c0,1.45-0.66,2.53-1.98,3.24c-1.32,0.71-3.08,1.07-5.27,1.07c-1.27,0-2.4-0.11-3.36-0.33
				c-0.97-0.22-1.67-0.5-2.1-0.83c-0.14-0.26-0.21-0.55-0.21-0.85c0-0.31,0.03-0.6,0.09-0.89c0.17-0.71,0.45-1.26,0.85-1.65h0.21
				c-0.02,0.07-0.02,0.15-0.02,0.23c0,0.89,0.45,1.68,1.35,2.38c0.9,0.7,2.12,1.05,3.67,1.05c1.04,0,1.85-0.17,2.41-0.51
				s0.84-0.73,0.84-1.17s-0.19-0.81-0.58-1.12c-0.38-0.31-1.01-0.62-1.87-0.93l-3.75-1.37c-1.06-0.37-1.83-0.89-2.3-1.56
				c-0.38-0.53-0.58-1.11-0.58-1.74c0-1.29,0.56-2.27,1.68-2.95c0.94-0.55,2.18-0.83,3.73-0.83c1.01,0,2.31,0.06,3.89,0.18h1.8
				l-0.51,2.93h-0.23c0-0.66-0.33-1.19-0.99-1.6c-0.66-0.41-1.5-0.61-2.52-0.61c-1.02,0-1.81,0.14-2.37,0.41s-0.86,0.64-0.91,1.1
				c-0.06,0.56,0.4,1.04,1.38,1.44c0.17,0.07,0.39,0.15,0.67,0.23l4.31,1.56C113.46,50.75,114.35,51.8,114.35,53.25z"/>
			<path class="st13" d="M122.44,51.56v4.44c0,0.31,0.15,0.58,0.44,0.8c0.29,0.22,0.64,0.33,1.04,0.33h0.3v0.18h-8.27v-0.18h0.3
				c0.4,0,0.74-0.11,1.02-0.33s0.43-0.49,0.45-0.8v-9.95c-0.02-0.32-0.17-0.59-0.45-0.81s-0.63-0.32-1.02-0.32h-0.3v-0.18h10.21
				c0.48,0,0.99-0.04,1.55-0.11c0.56-0.07,0.96-0.14,1.19-0.22v3.7h-0.23v-0.14c0-0.71-0.25-1.26-0.76-1.67s-1.21-0.62-2.12-0.65
				h-3.34v5.01h6.2c0.74-0.01,1.34-0.2,1.8-0.57c0.46-0.37,0.69-0.83,0.69-1.41v-0.07h0.23v4.99h-0.23v-0.09
				c0-0.56-0.23-1.03-0.69-1.39c-0.46-0.36-1.05-0.55-1.77-0.57H122.44z"/>
			<path class="st13" d="M142.87,44.48c1.98,0,3.69,0.26,5.12,0.77c1.44,0.51,2.54,1.27,3.31,2.25s1.15,2.16,1.15,3.51
				c0,2.05-0.85,3.65-2.56,4.8c-1.7,1.16-4.04,1.73-7.02,1.73c-2.98,0-5.32-0.58-7.01-1.73s-2.55-2.76-2.55-4.8
				c0-2.05,0.85-3.65,2.55-4.8S139.89,44.48,142.87,44.48z M139.59,55.17c0.79,0.99,1.89,1.49,3.29,1.49s2.5-0.5,3.29-1.49
				c0.79-0.99,1.19-2.38,1.19-4.15s-0.39-3.15-1.19-4.15c-0.79-0.99-1.89-1.49-3.29-1.49s-2.5,0.5-3.29,1.49
				c-0.79,0.99-1.19,2.38-1.19,4.15S138.8,54.17,139.59,55.17z"/>
			<path class="st13" d="M150.7,44.48c1.98,0,3.69,0.26,5.13,0.77c1.44,0.51,2.54,1.27,3.31,2.25s1.15,2.16,1.15,3.51
				c0,2.05-0.85,3.65-2.56,4.8c-1.7,1.16-4.04,1.73-7.03,1.73c-2.98,0-5.32-0.58-7.01-1.73c-1.7-1.16-2.55-2.76-2.55-4.8
				c0-2.05,0.85-3.65,2.55-4.8C145.38,45.06,147.72,44.48,150.7,44.48z M147.42,55.17c0.79,0.99,1.89,1.49,3.29,1.49
				c1.41,0,2.5-0.5,3.29-1.49c0.79-0.99,1.19-2.38,1.19-4.15s-0.39-3.15-1.19-4.15c-0.79-0.99-1.89-1.49-3.29-1.49
				c-1.4,0-2.5,0.5-3.29,1.49c-0.79,0.99-1.19,2.38-1.19,4.15S146.63,54.17,147.42,55.17z"/>
			<path class="st13" d="M176.79,46.39c1.62,1.11,2.43,2.65,2.43,4.62c0,1.97-0.81,3.52-2.43,4.62c-1.62,1.11-3.87,1.66-6.76,1.66
				h-8.73v-0.18h0.3c0.4,0,0.74-0.11,1.03-0.33s0.43-0.49,0.45-0.8V45.94c0-0.29-0.15-0.53-0.45-0.73c-0.3-0.2-0.64-0.3-1.03-0.3
				h-0.28l-0.02-0.18h8.73C172.92,44.73,175.17,45.29,176.79,46.39z M167.79,45.63v10.77h1.77c1.43,0,2.55-0.48,3.36-1.43
				c0.81-0.95,1.22-2.27,1.22-3.96c0-1.69-0.41-3.01-1.22-3.96c-0.81-0.95-1.94-1.43-3.36-1.43H167.79z"/>
		</g>
		<path class="st14" d="M137,59L137,59c0.68,0.89,3.33,4.14,8,5c6.73,1.25,11.59-3.58,12-4"/>
	</g>
	<g>
	</g>
	<g>
	</g>
	<g>
	</g>
	<g>
	</g>
	<g>
	</g>
	<g>
	</g>
	<g>
	</g>
	<g>
	</g>
	<g>
	</g>
	<g>
	</g>
	<g>
	</g>
	<g>
	</g>
	<g>
	</g>
	<g>
	</g>
	<g>
	</g>
</g>
</svg>
