<svg xmlns="http://www.w3.org/2000/svg" xmlns:xlink="http://www.w3.org/1999/xlink" viewBox="0 0 144.16 39.07"><defs><style>.cls-1{fill:#ef9d4d;}.cls-2{fill:#a6206c;}.cls-3{fill:#d34848;}.cls-4{fill:#fff;}.cls-5{fill:#bf0404;}.cls-6{fill:#8c0303;}.cls-7{fill:#f28705;}.cls-8{fill:url(#linear-gradient);}.cls-9{fill:url(#linear-gradient-2);}.cls-10{fill:url(#linear-gradient-3);}.cls-11{font-size:17.96px;fill:#dfac23;font-family:CinzelDecorative-Black, Cinzel Decorative;font-weight:800;}.cls-12{fill:none;stroke:#dfac23;stroke-miterlimit:10;stroke-width:2px;}</style><linearGradient id="linear-gradient" x1="39.52" y1="47.88" x2="58.21" y2="47.88" gradientTransform="translate(-7.1 14.94) rotate(-13.95)" gradientUnits="userSpaceOnUse"><stop offset="0" stop-color="#fff"/><stop offset="0.43" stop-color="#dfac23"/></linearGradient><linearGradient id="linear-gradient-2" x1="40.04" y1="43.01" x2="59.55" y2="43.01" gradientTransform="translate(-7.1 14.94) rotate(-13.95)" gradientUnits="userSpaceOnUse"><stop offset="0.72" stop-color="#dfac23"/><stop offset="1" stop-color="#fff"/></linearGradient><linearGradient id="linear-gradient-3" x1="47" y1="38.55" x2="59.38" y2="38.55" xlink:href="#linear-gradient-2"/></defs><g id="Layer_3" data-name="Layer 3"><path class="cls-1" d="M-1905-3821" transform="translate(-41.84 -37)"/></g><g id="Layer_1" data-name="Layer 1"><polygon class="cls-2" points="89.04 38.82 88.95 39.07 89.29 39.03 89.04 38.82"/><polygon class="cls-2" points="89.04 38.82 89.29 39.03 88.95 39.07 89.04 38.82"/><path class="cls-1" d="M64,41.31" transform="translate(-41.84 -37)"/><path class="cls-3" d="M55.43,42.82" transform="translate(-41.84 -37)"/><path class="cls-3" d="M61.5,42.82" transform="translate(-41.84 -37)"/><path class="cls-4" d="M52.56,47.61" transform="translate(-41.84 -37)"/><path class="cls-1" d="M52.11,49.18a3.82,3.82,0,0,0,.71.23,3.52,3.52,0,0,0,.9.08.2.2,0,0,1-.17.26c-.41,0-.47.23-.57.44a.26.26,0,0,1-.12.11.51.51,0,0,1-.27,0A10.33,10.33,0,0,0,51,50.26a1.51,1.51,0,0,0-.9.37,3.33,3.33,0,0,0-.56.23A2.43,2.43,0,0,0,48.31,52a2,2,0,0,0,.06,1.47c-5.79-4.11-6.71-5.38-6.46-5.77.12-.18.47-.11,3.66.09a19.42,19.42,0,0,1,2.9.21A25.41,25.41,0,0,1,52.11,49.18Z" transform="translate(-41.84 -37)"/><path class="cls-5" d="M57.18,50.56a5.59,5.59,0,0,1-2.25.23.07.07,0,0,1,0-.12,1,1,0,0,0,.22-1.07l1.56,0a.5.5,0,0,1,.16.3c0,.13.1.19.26.23C57.46,50.24,57.46,50.29,57.18,50.56Z" transform="translate(-41.84 -37)"/><path class="cls-6" d="M57.18,50.56c.11-.19.25-.38-.2-.34a.27.27,0,0,1-.19,0s0-.11-.06-.14a.51.51,0,0,0,0-.22c-.09-.17-.73-.15-.74-.19s1.51-.14,3-.58c1.27-.38,2-.9,2.16-.74s0,.26-.42.76l-.84.45-.94.42C58.3,50.19,57.73,50.39,57.18,50.56Z" transform="translate(-41.84 -37)"/><path class="cls-3" d="M55.12,49.6c.43.39.09.79-.19,1.19-.93,0-1.83-.12-2.74-.17-.06-.1,0-.14.13-.14a.3.3,0,0,0,.29-.2h.21a1.58,1.58,0,0,1,.37,0c.78,0,1-.09,1-.69,0,0,0,0,.08,0Z" transform="translate(-41.84 -37)"/><path class="cls-7" d="M52.61,50.28c.06.16.14.33-.25.26-.08,0-.15,0-.17.08-.7.06-1.38,0-2.08,0,0-.4.57-.42.79-.43A5.41,5.41,0,0,1,52.61,50.28Z" transform="translate(-41.84 -37)"/><path class="cls-7" d="M54.31,49.53c.09.13.21.25-.07.37l0,0c-.2.11,0,.39-.28.42a3,3,0,0,1-1.11-.07,1.18,1.18,0,0,0,.17-.36c0-.16.11-.23.29-.2a.39.39,0,0,0,.44-.23Z" transform="translate(-41.84 -37)"/><path class="cls-8" d="M61.09,48.32c-.47-.27-1.15,1-2.68,1.56-1.93.73-4.28,0-6.68-.64a18.83,18.83,0,0,0-4.4-1c-.54,0-.83,0-1.64-.07a32.73,32.73,0,0,1-3.78-.43c.08,1.86.68,2.63,1.24,3a8.19,8.19,0,0,0,2.12,1,1.58,1.58,0,0,1,1,.71c.3.52.52,1,.85,1.55a6.39,6.39,0,0,0,.81.86c.6-.15,1.11-.24,1.57-.4.92-.34,1.83-.68,2.7-1.07a16.53,16.53,0,0,1,8.53-1.64,2.62,2.62,0,0,0,.59-.07c0-.42,0-1,0-1.59C61.29,48.56,61.22,48.39,61.09,48.32Z" transform="translate(-41.84 -37)"/><path class="cls-1" d="M57.14,44a14.25,14.25,0,0,1-1.3-.64.17.17,0,0,1,.21-.14.46.46,0,0,0,.57-.15.18.18,0,0,1,.13,0,.35.35,0,0,1,.2.05,2.9,2.9,0,0,0,1.34.22l.35-.07c1.37-.28,2.43-.19,2.67.21.06.09.13.3-.12.7l.17-.08a.7.7,0,0,0-.23.06,6.34,6.34,0,0,1-3.06,0A1.64,1.64,0,0,0,57.14,44Z" transform="translate(-41.84 -37)"/><path class="cls-5" d="M53.44,41.12c.35.16.73.36,1.13.58s.49.3.71.45c.14.3.12.31.12.31s-.18-.14-.3-.13-.2.12-.25.54l-1.14-.49a.36.36,0,0,1,0-.27.17.17,0,0,0,0-.1.25.25,0,0,0-.12-.15c-.22-.15-1.78-1.06-1.76-1.13A8.3,8.3,0,0,1,53.44,41.12Z" transform="translate(-41.84 -37)"/><path class="cls-6" d="M53.66,41.54c-.14.1-.31.19,0,.3a.19.19,0,0,1,.12.09.13.13,0,0,1,0,.12c-.09.22-.06.28-.11.33s-.89-.37-1.53-.52a2.51,2.51,0,0,0-2,.51,3.63,3.63,0,0,1,2-.91A4.31,4.31,0,0,1,53.66,41.54Z" transform="translate(-41.84 -37)"/><path class="cls-3" d="M54.85,42.87a.44.44,0,0,1,0-.26c0-.34.45-.46.47-.46a3.21,3.21,0,0,1,.47.25c.51.35.63.74,1,.83a.7.7,0,0,0,.32,0l.83.21a5.69,5.69,0,0,0-.8-.28l-.21,0-.16-.07a.92.92,0,0,1-.28-.09c-.56-.25-.73-.22-1,.2,0,0,0,0-.07,0Z" transform="translate(-41.84 -37)"/><path class="cls-7" d="M56.92,43.13a2.77,2.77,0,0,0-.6-.15,2.11,2.11,0,0,0,.81.19h.32a3.39,3.39,0,0,1-.71.12,1.68,1.68,0,0,1,1.08-.08l.37.13c.25.09.47.19.68.28-.16.29-.56.14-.72.08A4,4,0,0,1,56.92,43.13Z" transform="translate(-41.84 -37)"/><path class="cls-7" d="M55.42,43.16c0-.12-.07-.24.17-.25h0c.16,0,.17-.21.28-.23H56a4,4,0,0,1,.7.24,7.92,7.92,0,0,1,.78.26,3,3,0,0,1,.48.27,7.18,7.18,0,0,0-1.15-.22c-.11,0-.21,0-.26.05a.23.23,0,0,1-.14.1.25.25,0,0,1-.14,0,.32.32,0,0,0-.4,0Z" transform="translate(-41.84 -37)"/><path class="cls-1" d="M52.92,48.62a11.26,11.26,0,0,1-1.56-.31,9.64,9.64,0,0,1-1-.33.35.35,0,0,1,.37-.15,1.17,1.17,0,0,0,1-.16.6.6,0,0,1,.22-.05,1.14,1.14,0,0,1,.33.05,17,17,0,0,0,1.82.54,3.35,3.35,0,0,0,1.3,0,7.37,7.37,0,0,0,3-.51,5.68,5.68,0,0,0,3.07-2.91,4.69,4.69,0,0,1-2.26,3.11,10.43,10.43,0,0,1-5.2.79C53.52,48.67,53.16,48.64,52.92,48.62Z" transform="translate(-41.84 -37)"/><path class="cls-5" d="M46.92,46.13a9.69,9.69,0,0,1,2.81.5s0,.08,0,.1a1.22,1.22,0,0,0-.94.75L46.91,47a.24.24,0,0,1,0-.28c.07-.1,0-.17-.17-.25C46.38,46.29,46.41,46.25,46.92,46.13Z" transform="translate(-41.84 -37)"/><path class="cls-6" d="M46.92,46.13c-.25.11-.54.21,0,.31a.34.34,0,0,1,.2.09s0,.09,0,.12-.11.14-.11.18.75.33.75.36-5.86-1-5.92-1h0c.82-.07,1.71-.12,2.66-.13S46.16,46.09,46.92,46.13Z" transform="translate(-41.84 -37)"/><path class="cls-3" d="M48.74,47.48c-.25-.43.4-.63,1-.85,1.1.27,2.08.63,3.13.95,0,.09-.13.09-.23.07a.66.66,0,0,0-.48.06l-.25-.06a3.12,3.12,0,0,1-.46-.09c-.91-.25-1.18-.21-1.67.22a.12.12,0,0,1-.1,0Z" transform="translate(-41.84 -37)"/><path class="cls-7" d="M52.15,47.71c0-.14,0-.29.46-.12a.25.25,0,0,0,.25,0c.88.16,1.62.44,2.47.62-.28.29-.94.15-1.2.09A8.24,8.24,0,0,1,52.15,47.71Z" transform="translate(-41.84 -37)"/><path class="cls-7" d="M49.67,47.77c0-.12-.09-.25.3-.26H50c.31,0,.3-.29.6-.24a4.62,4.62,0,0,1,1.27.39,2.14,2.14,0,0,0-.43.22.43.43,0,0,1-.47.07.8.8,0,0,0-.67,0Z" transform="translate(-41.84 -37)"/><path class="cls-9" d="M42.66,46.34C50,46.7,53.23,49.13,57.4,48.2A8.87,8.87,0,0,0,60,47.13a1.16,1.16,0,0,1,.43-.58,4,4,0,0,0,.38-.44,2.92,2.92,0,0,0,.51-2.63,7.6,7.6,0,0,1-4.46.07,6.48,6.48,0,0,1-.78-.3,49.68,49.68,0,0,1-4.29-2.52c-.93-.43-2.41-.69-4.78.17a2.57,2.57,0,0,1,.21.69,2.4,2.4,0,0,1-.08,1.1l-1.57-.17a3.15,3.15,0,0,0-2.91,1,3.1,3.1,0,0,0-.75,2.83Z" transform="translate(-41.84 -37)"/><path class="cls-1" d="M54.3,40.88c-.41-.19-.83-.38-1.22-.61a.15.15,0,0,1,.2-.13.42.42,0,0,0,.53-.15.34.34,0,0,1,.12,0,.41.41,0,0,1,.19,0,6.24,6.24,0,0,0,1.07.52,1.08,1.08,0,0,0,.73,0,6.18,6.18,0,0,0,1.81.35c.24,0,.47-.05.72,0-.1.12-.28.11-.41.16,1.72.06,2.2.17,2.23.29.06.27-2.42,1.1-4.8.2A6.23,6.23,0,0,1,54.3,40.88Z" transform="translate(-41.84 -37)"/><path class="cls-5" d="M51,38.51a4,4,0,0,1,1.62.5s0,.08,0,.09a.83.83,0,0,0-.48.69l-1.06-.47a.34.34,0,0,1,0-.26c0-.1,0-.16-.11-.24S50.76,38.62,51,38.51Z" transform="translate(-41.84 -37)"/><path class="cls-6" d="M51,38.51c-.13.1-.28.19,0,.3a.14.14,0,0,1,.11.08.11.11,0,0,1,0,.11c0,.06,0,.11,0,.15s0,.14,0,.17-.7-.32-1.37-.36a3.62,3.62,0,0,0-1,.17l-1,.17a3.33,3.33,0,0,1,1.91-.86A4,4,0,0,1,51,38.51Z" transform="translate(-41.84 -37)"/><path class="cls-3" d="M52.15,39.79c-.17-.4.18-.59.5-.78.64.27,1.22.61,1.83.92,0,.08-.06.08-.12.06a.23.23,0,0,0-.27,0L53.94,40a1.14,1.14,0,0,1-.26-.09c-.53-.24-.68-.21-.93.18,0,0,0,0-.06,0Z" transform="translate(-41.84 -37)"/><path class="cls-7" d="M54.09,40c0-.13,0-.27.25-.1a.11.11,0,0,0,.14,0c.51.16,1,.42,1.44.6-.14.27-.52.13-.68.07A3.84,3.84,0,0,1,54.09,40Z" transform="translate(-41.84 -37)"/><path class="cls-7" d="M52.69,40.07c0-.11-.07-.23.16-.24h0c.17,0,.15-.26.32-.21a2,2,0,0,1,.74.37c-.07.07-.18.12-.22.2a.16.16,0,0,1-.26.06.31.31,0,0,0-.38,0Z" transform="translate(-41.84 -37)"/><path class="cls-10" d="M54,40.19c.89.64.92,1,1.47,1.3.81.53,2.28.84,5.16-.26a4.09,4.09,0,0,0-1.06-1.54A3.88,3.88,0,0,0,55.13,39a1.06,1.06,0,0,1-1,.28c-.16-.18-.36-.4-.58-.61a7.52,7.52,0,0,0-.91-.87,3.31,3.31,0,0,0-4.61.2,6.51,6.51,0,0,0-.42.62,3.3,3.3,0,0,0-.26.64,5.82,5.82,0,0,1,3.3-.5A7.2,7.2,0,0,1,54,40.19Z" transform="translate(-41.84 -37)"/><path class="cls-2" d="M50.45,39.42" transform="translate(-41.84 -37)"/><text class="cls-11" transform="translate(11.11 29.3) scale(1.28 1)">BossFood</text><path class="cls-12" d="M143,68h0a13.33,13.33,0,0,0,8,5c6.73,1.25,11.59-3.58,12-4" transform="translate(-41.84 -37)"/></g></svg>